--------------------------------------------------------------------------------      Terminator Quadrilogy 720p BRrip Dual Audio [Eng-Hindi] @fairlove
--------------------------------------------------------------------------------

[1984] The Terminator 720p BRrip Dual Audio [Eng-Hindi] @fairlove

General
Complete name                    : [1984] The Terminator 720p BRrip Dual Audio [Eng-Hindi] @fairlove.mkv
Format                           : Matroska
File size                        : 593 MB
Duration                         : 1h 47mn 13 sec
Overall bit rate                 : 774 Kbps

Video
ID                               : 1
Format                           : AVC
Format/Info                      : Advanced Video Codec
Format profile                   : High@L3.1
Format settings, CABAC           : Yes
Format settings, ReFrames        : 5 frames
Muxing mode                      : Container profile=Unknown@3.1
Codec ID                         : V_MPEG4/ISO/AVC
Duration                         : 1h 47mn 13 sec
Nominal bit rate                 : 615 Kbps
Width                            : 1 280 pixels
Height                           : 694 pixels
Display aspect ratio             : 1.850
Frame rate                       : 23.976 fps
Resolution                       : 8 bits
Colorimetry                      : 4:2:0
Scan type                        : Progressive
Bits/(Pixel*Frame)               : 0.029
Title                            : BluRay Video
Language                         : English

Audio #1
ID                               : 2
Format                           : MPEG Audio
Format version                   : Version 1
Format profile                   : Layer 3
Mode                             : Joint stereo
Format_Settings_ModeExtension    : MS Stereo
Codec ID                         : A_MPEG/L3
Codec ID/Hint                    : MP3
Duration                         : 1h 42mn
Bit rate mode                    : Constant
Bit rate                         : 128 Kbps
Channel(s)                       : 2 channels
Sampling rate                    : 48.0 KHz
Video delay                      : 20s 0ms
Stream size                      : 93.8 MiB (16%)
Title                            : Hindi Audio
Writing library                  : LAME3.98r
Encoding settings                : -m j -V 4 -q 2 -lowpass 17 -b 128
Language                         : Hindi

Audio #2
ID                               : 3
Format                           : AAC
Format/Info                      : Advanced Audio Codec
Format version                   : Version 4
Format profile                   : LC
Format settings, SBR             : Yes
Format settings, PS              : No
Codec ID                         : A_AAC
Duration                         : 1h 47mn
Channel(s)                       : 2 channels
Channel positions                : Front: L R
Sampling rate                    : 48.0 KHz
Title                            : English Audio
Language                         : English

--------------------------------------------------------------------------------------------------------------------------------------------------------

[1991] Terminator 2 Judgment Day 720p BRrip Dual Audio [Eng-Hindi] @fairlove 

General
Complete name                    :[1991] Terminator 2 Judgment Day 720p BRrip Dual Audio [Eng-Hindi] @fairlove.mkv
Format                           : Matroska
File size                        : 660 MiB
Duration                         : 2h 33mn
Overall bit rate                 : 602 Kbps

Video
ID                               : 2
Format                           : AVC
Format/Info                      : Advanced Video Codec
Format profile                   : High@L3.1
Format settings, CABAC           : Yes
Format settings, ReFrames        : 5 frames
Muxing mode                      : Container profile=Unknown@3.1
Codec ID                         : V_MPEG4/ISO/AVC
Duration                         : 2h 33mn
Nominal bit rate                 : 508 Kbps
Width                            : 1 264 pixels
Height                           : 528 pixels
Display aspect ratio             : 2.35:1
Original display aspect ratio    : 2.35:1
Frame rate                       : 23.976 fps
Resolution                       : 8 bits
Colorimetry                      : 4:2:0
Scan type                        : Progressive
Bits/(Pixel*Frame)               : 0.032

Audio #1
ID                               : 1
Format                           : MPEG Audio
Format version                   : Version 2
Format profile                   : Layer 3
Mode                             : Joint stereo
Format_Settings_ModeExtension    : MS Stereo
Codec ID                         : A_MPEG/L3
Codec ID/Hint                    : MP3
Duration                         : 2h 33mn
Bit rate mode                    : Constant
Bit rate                         : 64.0 Kbps
Channel(s)                       : 2 channels
Sampling rate                    : 24.0 KHz
Video delay                      : 24ms
Stream size                      : 70.2 MiB (11%)
Title                            : Hindi Audio
Language                         : Hindi

Audio #2
ID                               : 3
Format                           : AAC
Format/Info                      : Advanced Audio Codec
Format version                   : Version 4
Format profile                   : LC
Format settings, SBR             : Yes
Format settings, PS              : No
Codec ID                         : A_AAC
Duration                         : 2h 33mn
Channel(s)                       : 2 channels
Channel positions                : Front: L R
Sampling rate                    : 48.0 KHz
Title                            : English Audio
Language                         : English

--------------------------------------------------------------------------------------------------------------------------------------------------------

[2003] Terminator 3 Rise Of Machine 720p BRrip Dual Audio [Eng-Hindi] @fairlove

General
Complete name                    : [2003] Terminator 3 Rise Of Machine 720p BRrip Dual [Eng-Hindi] @fairlove.mkv
Format                           : Matroska
File size                        : 479 MiB
Duration                         : 1h 49mn
Overall bit rate                 : 614 Kbps


Video
ID                               : 1
Format                           : AVC
Format/Info                      : Advanced Video Codec
Format profile                   : High@L3.1
Format settings, CABAC           : Yes
Format settings, ReFrames        : 5 frames
Muxing mode                      : Container profile=Unknown@3.1
Codec ID                         : V_MPEG4/ISO/AVC
Duration                         : 1h 49mn
Nominal bit rate                 : 474 Kbps
Width                            : 1 280 pixels
Height                           : 528 pixels
Display aspect ratio             : 2.40:1
Frame rate                       : 23.976 fps
Resolution                       : 8 bits
Colorimetry                      : 4:2:0
Scan type                        : Progressive
Bits/(Pixel*Frame)               : 0.029
Title                            : Blu Ray Video

Audio #1
ID                               : 2
Format                           : AAC
Format/Info                      : Advanced Audio Codec
Format version                   : Version 4
Format profile                   : LC
Format settings, SBR             : Yes
Format settings, PS              : No
Codec ID                         : A_AAC
Duration                         : 1h 49mn
Channel(s)                       : 2 channels
Channel positions                : Front: L R
Sampling rate                    : 48.0 KHz
Title                            : English Audio
Language                         : English

Audio #2
ID                               : 3
Format                           : AAC
Format/Info                      : Advanced Audio Codec
Format version                   : Version 4
Format profile                   : LC
Format settings, SBR             : No
Codec ID                         : A_AAC
Duration                         : 1h 49mn
Channel(s)                       : 2 channels
Channel positions                : Front: L R
Sampling rate                    : 44.1 KHz
Title                            : Hindi Audio
Language                         : Hindi

--------------------------------------------------------------------------------------------------------------------------------------------------------

[2009] Terminator 4 Salvation 720p BRrip Dual Audio [Eng-Hindi] @fairlove

General
Complete name                    : [2009] Terminator 4 Salvation 720p BRrip Dual Audio [Eng-Hindi] @fairlove.mkv
Format                           : Matroska
File size                        : 887 MiB
Duration                         : 1h 49mn
Overall bit rate                 : 1 131 Kbps


Video
ID                               : 1
Format                           : AVC
Format/Info                      : Advanced Video Codec
Format profile                   : High@L3.1
Format settings, CABAC           : Yes
Format settings, ReFrames        : 4 frames
Codec ID                         : V_MPEG4/ISO/AVC
Duration                         : 1h 49mn
Width                            : 1 280 pixels
Height                           : 528 pixels
Display aspect ratio             : 2.40:1
Frame rate                       : 23.976 fps
Resolution                       : 8 bits
Colorimetry                      : 4:2:0
Scan type                        : Progressive
Title                            : Blu Ray Video

Audio #1
ID                               : 2
Format                           : AAC
Format/Info                      : Advanced Audio Codec
Format version                   : Version 4
Format profile                   : LC
Format settings, SBR             : Yes
Format settings, PS              : No
Codec ID                         : A_AAC
Duration                         : 1h 49mn
Channel(s)                       : 6 channels
Channel positions                : Front: L C R, Side: L R, LFE
Sampling rate                    : 32.0 KHz
Title                            : English Audio
Language                         : English

Audio #2
ID                               : 3
Format                           : MPEG Audio
Format version                   : Version 1
Format profile                   : Layer 3
Mode                             : Joint stereo
Format_Settings_ModeExtension    : MS Stereo
Codec ID                         : A_MPEG/L3
Codec ID/Hint                    : MP3
Duration                         : 1h 49mn
Bit rate mode                    : Constant
Bit rate                         : 128 Kbps
Channel(s)                       : 2 channels
Sampling rate                    : 48.0 KHz
Video delay                      : 16ms
Stream size                      : 100 MiB (11%)
Title                            : Hindi Audio
Language                         : Hindi
